<svg width="57" height="38" viewBox="0 0 57 38" fill="none" xmlns="http://www.w3.org/2000/svg">
<path fill-rule="evenodd" clip-rule="evenodd" d="M16.9946 11.4011C17.5206 10.7369 17.8757 9.81388 17.7792 8.8939C17.0191 8.92639 16.0999 9.42286 15.5585 10.0846C15.0683 10.6719 14.6441 11.6124 14.7612 12.5142C15.6065 12.5822 16.4686 12.0652 16.9946 11.4011ZM19.1786 17.2387C19.1618 15.2492 20.7371 14.2922 20.81 14.2447C19.9213 12.8989 18.5431 12.7121 18.0521 12.6914C16.8775 12.5704 15.7578 13.4119 15.1641 13.4119C14.5682 13.4119 13.6514 12.7104 12.6753 12.7319C11.395 12.7507 10.2145 13.5069 9.55553 14.6999C8.22892 17.1087 9.21872 20.6665 10.5139 22.6147C11.1481 23.5685 11.902 24.6403 12.8957 24.6016C13.8521 24.5628 14.2108 23.9573 15.3664 23.9573C16.5195 23.9558 16.8457 24.6001 17.8529 24.5818C18.8806 24.5588 19.5329 23.6081 20.1631 22.6495C20.8876 21.545 21.1879 20.4725 21.203 20.4187C21.1824 20.4043 19.2014 19.6175 19.1786 17.2387ZM31.4145 11.4002C31.0313 11.0156 30.5372 10.7164 29.9459 10.5104C29.3597 10.3071 28.6558 10.2041 27.8538 10.2041C27.3402 10.2017 26.8267 10.2294 26.3161 10.2874C25.8902 10.3368 25.4658 10.3989 25.0435 10.4734L24.9196 10.4956V24.4813H26.1456V18.5892C26.5585 18.6627 27.0313 18.7015 27.5527 18.7015C28.2468 18.7015 28.8968 18.609 29.4852 18.4275C30.0512 18.2601 30.5785 17.9736 31.0344 17.5862C31.4736 17.2039 31.8268 16.7259 32.0691 16.1857C32.32 15.6317 32.4475 14.98 32.4475 14.247C32.4475 13.6407 32.3556 13.0952 32.1762 12.6259C32.0029 12.1687 31.7438 11.7521 31.4145 11.4002ZM30.2878 16.7422C29.6586 17.2917 28.7677 17.5703 27.6372 17.5703C27.3263 17.5703 27.0322 17.556 26.7621 17.53C26.5547 17.5104 26.3487 17.4743 26.1464 17.4222V11.4749C26.3084 11.4439 26.5091 11.4146 26.7446 11.3884C27.0435 11.3552 27.4029 11.3384 27.8151 11.3384C28.2882 11.3337 28.7596 11.3973 29.2161 11.5279C29.6049 11.6392 29.9704 11.8256 30.2933 12.0772C30.5874 12.3147 30.8186 12.6234 30.979 12.9954C31.1408 13.3722 31.2222 13.8219 31.2222 14.3309C31.2214 15.3877 30.9067 16.1992 30.2878 16.7422ZM39.7766 23.172C39.7629 22.7761 39.7576 22.3788 39.7576 21.9828V18.095C39.7576 17.6343 39.7126 17.1642 39.6252 16.697C39.541 16.2325 39.3683 15.7899 39.1174 15.3957C38.8682 15.0062 38.5191 14.6849 38.0827 14.4394C37.6465 14.1947 37.0794 14.0714 36.3961 14.0714C35.8973 14.0714 35.4102 14.1387 34.9502 14.2724C34.4671 14.417 34.0104 14.6433 33.5977 14.9422L33.4981 15.0142L33.9124 16.0235L34.0622 15.9182C34.3892 15.6896 34.7468 15.5124 35.1235 15.3925C35.5041 15.2686 35.9006 15.2049 36.2994 15.2042C36.8103 15.2042 37.2186 15.3007 37.5096 15.4907C37.8054 15.683 38.028 15.9214 38.1717 16.2C38.3215 16.4872 38.4195 16.793 38.4629 17.1103C38.5093 17.4405 38.5314 17.7357 38.5314 17.989V18.1015C36.7138 18.0927 35.2945 18.4078 34.3519 19.0405C33.3629 19.7038 32.8611 20.6483 32.8611 21.8468C32.8611 22.1918 32.9204 22.5395 33.0376 22.883C33.156 23.2305 33.3362 23.5416 33.5718 23.8076C33.8092 24.0766 34.1155 24.2961 34.4818 24.46C34.8468 24.6253 35.2762 24.7085 35.7559 24.7085C36.435 24.7203 37.1035 24.5299 37.6822 24.1598C37.9347 23.9976 38.1588 23.8133 38.3505 23.6143C38.4321 23.529 38.51 23.4397 38.5839 23.3468H38.631L38.7435 24.4821H39.9255L39.8928 24.2999C39.8279 23.9275 39.789 23.5503 39.7766 23.172ZM38.5314 21.1803C38.5314 21.3163 38.5002 21.5031 38.4409 21.7271C38.3615 21.9695 38.2504 22.1994 38.111 22.4103C37.8005 22.8838 37.3493 23.2383 36.8271 23.4196C36.51 23.5283 36.1777 23.5809 35.844 23.5758C35.624 23.5758 35.4056 23.537 35.198 23.4608C34.9964 23.3879 34.8114 23.2725 34.6544 23.1221C34.4899 22.96 34.36 22.7639 34.2728 22.5465C34.1762 22.3146 34.1275 22.0273 34.1275 21.6931C34.1275 21.146 34.2689 20.702 34.5464 20.3775C34.8453 20.0315 35.2204 19.7666 35.6397 19.6055C36.1144 19.4197 36.6114 19.3017 37.1166 19.255C37.5868 19.2077 38.059 19.1864 38.5314 19.1908V21.1803ZM48.0982 14.2985L45.8101 20.7765C45.6672 21.1675 45.534 21.5618 45.4125 21.9458C45.3532 22.1373 45.2968 22.3185 45.2414 22.4911H45.1981C45.141 22.302 45.0826 22.1133 45.0232 21.925C44.9048 21.545 44.777 21.1723 44.6462 20.8168L42.1992 14.2985H40.891L44.3915 23.6698C44.4835 23.8955 44.4972 23.9993 44.4972 24.0411C44.4972 24.0538 44.4928 24.1306 44.3901 24.4156C44.1988 24.924 43.9494 25.4068 43.6475 25.8531C43.3669 26.2506 43.11 26.5736 42.881 26.8118C42.615 27.0889 42.3406 27.3161 42.0616 27.4879C41.7766 27.6629 41.5166 27.8046 41.2862 27.9116L41.1541 27.9731L41.5805 29.0521L41.7159 28.9999C41.8266 28.9564 42.0352 28.8574 42.3512 28.6968C42.6704 28.5329 43.024 28.2733 43.401 27.9216C43.7352 27.6154 44.0319 27.2673 44.2844 26.8854C44.5428 26.4991 44.8013 26.0456 45.0553 25.5421C45.306 25.0393 45.5568 24.4678 45.8017 23.8416C46.0465 23.2123 46.3094 22.5085 46.5809 21.7525L49.408 14.2985H48.0982ZM51.8954 0.79173L52.4747 0.7923C52.6336 0.79325 52.7923 0.79553 52.952 0.79952C53.2415 0.8075 53.5821 0.82403 53.9098 0.88578C54.2132 0.94278 54.4701 1.03075 54.7186 1.16204C55.2211 1.42747 55.6294 1.85307 55.8839 2.37633C56.0102 2.63454 56.0939 2.90225 56.1485 3.21879C56.2071 3.5568 56.2238 3.91229 56.2308 4.21553C56.2352 4.38026 56.2375 4.54556 56.2383 4.71257C56.2397 4.91283 56.2397 5.1148 56.2397 5.31582V32.6842C56.2397 32.8852 56.2397 33.0862 56.2383 33.2897C56.2377 33.4546 56.235 33.6197 56.2308 33.7845C56.2231 34.0877 56.2071 34.4432 56.1485 34.7835C56.1012 35.0757 56.012 35.3588 55.8839 35.6237C55.628 36.1465 55.2193 36.572 54.7172 36.8387C54.4628 36.9723 54.1908 37.0654 53.9098 37.115C53.5936 37.1678 53.2743 37.1963 52.9543 37.2005C52.7947 37.2045 52.635 37.2068 52.473 37.2068C52.2807 37.2083 52.0869 37.2083 51.8946 37.2083H5.09769C4.90685 37.2083 4.71619 37.2083 4.52315 37.2068C4.36351 37.2068 4.20386 37.2045 4.04805 37.2005C3.72712 37.1961 3.40692 37.1674 3.09018 37.115C2.80829 37.066 2.53534 36.9725 2.28046 36.838C2.03068 36.7061 1.8028 36.5334 1.60557 36.3265C1.40743 36.1207 1.24231 35.8834 1.11587 35.6237C0.987245 35.3582 0.898025 35.0742 0.850587 34.7812C0.798954 34.4516 0.771222 34.1185 0.767755 33.7845C0.763924 33.6194 0.761734 33.4541 0.760822 33.2889L0.760275 32.8062V5.19479L0.760822 4.71257C0.761734 4.54708 0.763924 4.38178 0.767755 4.21553C0.775418 3.91381 0.791291 3.55927 0.850587 3.21708C0.89766 2.92429 0.987063 2.64062 1.11587 2.37576C1.37094 1.85269 1.77908 1.42766 2.28137 1.16204C2.53571 1.02847 2.80811 0.93556 3.08927 0.88673C3.40637 0.83277 3.72675 0.80389 4.04805 0.80028C4.20678 0.79629 4.3657 0.794011 4.52388 0.793251L5.10463 0.79173H51.8954ZM51.8954 0H5.10463L4.52005 0.000759582C4.35584 0.00151958 4.19164 0.00398955 4.02743 0.00873955C3.66837 0.0136795 3.31003 0.0465507 2.95553 0.106971C2.60103 0.170431 2.25747 0.28823 1.93618 0.45676C1.29194 0.7999 0.767755 1.34596 0.438613 2.01704C0.276414 2.35144 0.16293 2.7094 0.102538 3.07857C0.0439715 3.44774 0.0122242 3.82071 0.00766292 4.19482C0.00383145 4.36506 0.00145921 4.53606 0.000729405 4.70706L0 5.31582V32.6842L0.000729405 33.2937C0.00145921 33.4647 0.00383104 33.6357 0.00839233 33.8059C0.0182447 34.178 0.0394097 34.5532 0.10345 34.9214C0.167308 35.2957 0.272765 35.6432 0.438613 35.983C0.766296 36.6554 1.29121 37.202 1.9369 37.5432C2.26295 37.7165 2.59683 37.8258 2.95553 37.8932C3.30912 37.9588 3.66946 37.981 4.02743 37.9913C4.19164 37.996 4.35511 37.9985 4.52005 37.9985C4.71473 38 4.90995 38 5.10463 38H51.8954C52.09 38 52.2853 38 52.4799 37.9985C52.6442 37.9975 52.8084 37.9953 52.9726 37.9913C53.3298 37.981 53.6901 37.9588 54.0445 37.8932C54.3988 37.8296 54.742 37.7118 55.0629 37.5432C55.7088 37.2022 56.2339 36.6556 56.5614 35.983C56.7278 35.6432 56.8327 35.2957 56.8965 34.9214C56.9604 34.5532 56.981 34.178 56.9909 33.8059C56.9954 33.6349 56.9976 33.4639 56.9984 33.2937C57 33.0902 57 32.8877 57 32.6842V5.31582C57 5.11233 57 4.90979 56.9984 4.7063C56.9978 4.53549 56.9953 4.36468 56.9909 4.19406C56.9865 3.82014 56.9549 3.44698 56.8965 3.07781C56.8365 2.70864 56.7234 2.35068 56.5614 2.01628C56.2328 1.34444 55.7082 0.798 55.0629 0.456C54.742 0.28747 54.3988 0.16948 54.0445 0.10602C53.69 0.0457897 53.3316 0.01292 52.9726 0.00797996C52.8076 0.00303997 52.6432 0.00152 52.4799 0H51.8954Z" fill="black"/>
</svg>
