<svg width="15" height="17" viewBox="0 0 15 17" fill="none" xmlns="http://www.w3.org/2000/svg">
<path fill-rule="evenodd" clip-rule="evenodd" d="M10.6667 2.16671V1.37504C10.6667 0.939624 11.0229 0.583374 11.4583 0.583374C11.8938 0.583374 12.25 0.939624 12.25 1.37504V2.16671H13.0417C13.9125 2.16671 14.625 2.87921 14.625 3.75004V14.8334C14.625 15.7042 13.9125 16.4167 13.0417 16.4167H1.95833C1.07958 16.4167 0.375 15.7042 0.375 14.8334L0.382917 3.75004C0.382917 2.87921 1.07958 2.16671 1.95833 2.16671H2.75V1.37504C2.75 0.939624 3.10625 0.583374 3.54167 0.583374C3.97708 0.583374 4.33333 0.939624 4.33333 1.37504V2.16671H10.6667ZM8.29167 9.29173H10.6667C11.1021 9.29173 11.4583 9.64798 11.4583 10.0834V12.4584C11.4583 12.8938 11.1021 13.2501 10.6667 13.2501H8.29167C7.85625 13.2501 7.5 12.8938 7.5 12.4584V10.0834C7.5 9.64798 7.85625 9.29173 8.29167 9.29173ZM13.0417 5.33335H1.95832V3.75001H13.0417V5.33335ZM2.74999 14.8334H12.25C12.6854 14.8334 13.0417 14.5095 13.0417 14.1137V6.91673H1.95832V14.1137C1.95832 14.5095 2.31457 14.8334 2.74999 14.8334Z" fill="#6D3805"/>
</svg>
