<svg width="35" height="25" viewBox="0 0 35 25" fill="none" xmlns="http://www.w3.org/2000/svg">
<path d="M24.1909 1.75046C24.1909 1.95493 24.1385 2.15779 24.0363 2.3496L27.3486 7.63742H23.3885L20.7056 3.35159C20.2888 3.22907 19.9276 3.03062 19.6606 2.77732C19.3935 2.52402 19.2305 2.22534 19.1889 1.91301C19.1472 1.60067 19.2285 1.28635 19.424 1.00345C19.6195 0.720539 19.922 0.47961 20.2994 0.306258C20.6767 0.132906 21.1148 0.0336055 21.5671 0.0189076C22.0194 0.00420974 22.469 0.0746632 22.8681 0.222783C23.2672 0.370902 23.6009 0.591154 23.8338 0.860139C24.0667 1.12912 24.1901 1.43679 24.1909 1.75046ZM11.6115 7.63742L14.2871 3.35159C14.7434 3.22142 15.1344 3.00106 15.4112 2.71799C15.688 2.43492 15.8384 2.10166 15.8436 1.75978C15.8489 1.41789 15.7087 1.0825 15.4406 0.795438C15.1725 0.508374 14.7883 0.282336 14.336 0.145513C13.8837 0.00868969 13.3833 -0.0328651 12.8971 0.0260308C12.4109 0.0849266 11.9606 0.241667 11.6021 0.476705C11.2437 0.711744 10.9931 1.01468 10.8815 1.34774C10.7699 1.68079 10.8024 2.02923 10.9748 2.3496L7.66246 7.63742H11.6115ZM2.41062 9.35583H32.5673C33.2125 9.35583 33.8313 9.53338 34.2875 9.84943C34.7437 10.1655 35 10.5941 35 11.0411V13.1802C35 13.4015 34.9371 13.6206 34.8148 13.8251C34.6926 14.0296 34.5134 14.2154 34.2875 14.3718C34.0616 14.5283 33.7934 14.6525 33.4982 14.7372C33.2031 14.8219 32.8868 14.8654 32.5673 14.8654H31.7171L29.2771 22.8991C29.1784 23.2077 28.9809 23.497 28.6993 23.7456C28.4039 24.0064 28.0467 24.2306 27.643 24.4085C27.2166 24.598 26.753 24.744 26.2666 24.8419C25.7503 24.9474 25.2148 25.0006 24.6767 25H10.3233C9.79132 24.9994 9.26215 24.9461 8.75184 24.8419C8.26536 24.744 7.80178 24.598 7.37539 24.4085C6.97162 24.2306 6.61444 24.0064 6.31914 23.7456C6.03092 23.4982 5.82711 23.2088 5.72292 22.8991L3.28286 14.8654H2.4327C2.11324 14.8654 1.7969 14.8219 1.50175 14.7372C1.2066 14.6525 0.938419 14.5283 0.712522 14.3718C0.486625 14.2154 0.307433 14.0296 0.185178 13.8251C0.0629237 13.6206 0 13.4015 0 13.1802V11.0411C0 10.5941 0.256302 10.1655 0.712522 9.84943C1.16874 9.53338 1.78751 9.35583 2.4327 9.35583H2.41062ZM22.1851 21.2292C22.1775 21.2957 22.1898 21.3626 22.2213 21.4257C22.2528 21.4888 22.3027 21.5467 22.368 21.5958C22.4333 21.6449 22.5126 21.684 22.6008 21.7109C22.689 21.7378 22.7843 21.7517 22.8807 21.7518H24.3307C24.4984 21.7519 24.6604 21.7102 24.7874 21.6344C24.9144 21.5586 24.9979 21.4537 25.0226 21.3388L26.215 15.8955C26.2304 15.8264 26.2241 15.7558 26.1964 15.6886C26.1687 15.6213 26.1203 15.5591 26.0545 15.506C25.9888 15.453 25.9073 15.4104 25.8155 15.3812C25.7238 15.3521 25.6241 15.337 25.5231 15.3371H23.51C23.3343 15.3374 23.1653 15.3834 23.0364 15.4661C22.9075 15.5488 22.8283 15.662 22.8144 15.7833L22.1851 21.2292ZM15.7077 15.8419L15.9911 21.2853C15.9977 21.4106 16.0743 21.5293 16.2048 21.6163C16.3352 21.7033 16.5092 21.7519 16.6903 21.7518H18.3097C18.4908 21.7519 18.6648 21.7033 18.7952 21.6163C18.9257 21.5293 19.0023 21.4106 19.0089 21.2853L19.2923 15.8419C19.2973 15.7762 19.2829 15.7105 19.25 15.6487C19.2171 15.587 19.1664 15.5305 19.101 15.4828C19.0356 15.4351 18.9568 15.3971 18.8694 15.3712C18.7821 15.3453 18.6881 15.3319 18.5931 15.332H16.3959C16.3018 15.333 16.209 15.347 16.1229 15.3734C16.0369 15.3998 15.9594 15.4379 15.8952 15.4855C15.8309 15.5332 15.7812 15.5893 15.749 15.6505C15.7168 15.7117 15.7027 15.7768 15.7077 15.8419ZM8.78496 15.898L9.97739 21.3414C10.0021 21.4562 10.0856 21.5611 10.2126 21.6369C10.3396 21.7128 10.5016 21.7544 10.6693 21.7544H12.1193C12.2157 21.7542 12.311 21.7403 12.3992 21.7135C12.4874 21.6866 12.5666 21.6474 12.632 21.5983C12.6973 21.5493 12.7472 21.4914 12.7787 21.4283C12.8102 21.3652 12.8225 21.2983 12.8149 21.2317L12.1893 15.7884C12.1754 15.6671 12.0962 15.5539 11.9673 15.4712C11.8384 15.3885 11.6693 15.3425 11.4937 15.3422H9.47687C9.37666 15.3422 9.27764 15.3572 9.1865 15.386C9.09536 15.4149 9.01424 15.457 8.94862 15.5094C8.88301 15.5619 8.83444 15.6235 8.8062 15.6901C8.77797 15.7567 8.77072 15.8268 8.78496 15.8955V15.898Z" fill="#6D3805"/>
</svg>
