<svg width="58" height="38" viewBox="0 0 58 38" fill="none" xmlns="http://www.w3.org/2000/svg">
<rect x="0.5" y="0.5" width="56.456" height="37" rx="3.5" fill="white" stroke="#E0E0E0"/>
<path d="M33.435 11.1111H23.3308V27.6142H33.435V11.1111Z" fill="#FF5F00"/>
<path d="M24.3712 19.3644C24.37 17.7753 24.7302 16.2068 25.4247 14.7774C26.1191 13.3481 27.1296 12.0955 28.3797 11.1143C26.8314 9.89758 24.9721 9.14096 23.0142 8.93093C21.0563 8.72091 19.0788 9.06596 17.3077 9.92665C15.5366 10.7873 14.0434 12.1289 12.9987 13.7981C11.954 15.4673 11.4 17.3967 11.4 19.3659C11.4 21.335 11.954 23.2645 12.9987 24.9337C14.0434 26.6028 15.5366 27.9444 17.3077 28.8051C19.0788 29.6658 21.0563 30.0109 23.0142 29.8008C24.9721 29.5908 26.8314 28.8342 28.3797 27.6174C27.1293 26.636 26.1185 25.3829 25.424 23.953C24.7296 22.5232 24.3695 20.954 24.3712 19.3644Z" fill="#EB001B"/>
<path d="M44.3581 25.8681V25.5299H44.5039V25.4599H44.157V25.5299H44.294V25.8681H44.3581ZM45.0316 25.8681V25.4599H44.9266L44.8042 25.7515L44.6817 25.4599H44.5768V25.8681H44.6526V25.559L44.7663 25.8243H44.845L44.9587 25.559V25.8681H45.0316Z" fill="#F79E1B"/>
<path d="M45.3612 19.3642C45.3612 21.3335 44.807 23.263 43.7622 24.9323C42.7173 26.6015 41.2239 27.9431 39.4526 28.8037C37.6812 29.6642 35.7035 30.0091 33.7455 29.7987C31.7875 29.5884 29.9281 28.8314 28.38 27.6143C29.6296 26.6323 30.6398 25.3793 31.3344 23.9499C32.029 22.5205 32.39 20.952 32.39 19.3627C32.39 17.7735 32.029 16.205 31.3344 14.7756C30.6398 13.3462 29.6296 12.0932 28.38 11.1112C29.9281 9.89405 31.7875 9.13706 33.7455 8.92673C35.7035 8.71641 37.6812 9.06124 39.4526 9.9218C41.2239 10.7824 42.7173 12.124 43.7622 13.7932C44.807 15.4624 45.3612 17.392 45.3612 19.3613V19.3642Z" fill="#F79E1B"/>
</svg>
