<svg width="27" height="27" viewBox="0 0 27 27" fill="none" xmlns="http://www.w3.org/2000/svg">
<circle cx="13.5" cy="13.5" r="13.5" fill="#FF5E00"/>
<path fill-rule="evenodd" clip-rule="evenodd" d="M16.697 11.0332H19.6364C19.9739 11.0332 20.25 11.3093 20.25 11.6468L20.2316 11.8125L18.673 17.5009C18.5257 18.0164 18.0532 18.3968 17.4886 18.3968H9.51136C8.94682 18.3968 8.47432 18.0164 8.33318 17.5009L6.77455 11.8125C6.75614 11.7573 6.75 11.702 6.75 11.6468C6.75 11.3093 7.02614 11.0332 7.36364 11.0332H10.303L12.9907 7.01386C13.1073 6.83591 13.3036 6.75 13.5 6.75C13.6964 6.75 13.8927 6.83591 14.0093 7.00773L16.697 11.0332ZM15.2182 11.0332L13.5 8.45591L11.7818 11.0332H15.2182ZM17.4886 17.1695L9.5175 17.1757L8.1675 12.2605H18.8386L17.4886 17.1695ZM12.2727 14.715C12.2727 14.04 12.825 13.4877 13.5 13.4877C14.175 13.4877 14.7273 14.04 14.7273 14.715C14.7273 15.39 14.175 15.9423 13.5 15.9423C12.825 15.9423 12.2727 15.39 12.2727 14.715Z" fill="white"/>
</svg>
