<svg width="42" height="41" viewBox="0 0 42 41" fill="none" xmlns="http://www.w3.org/2000/svg">
<path fill-rule="evenodd" clip-rule="evenodd" d="M21.4612 0C32.6999 0 41.8314 9.15808 41.8314 20.5704C41.8314 31.8419 32.6999 41 21.4612 41C10.082 41 0.950577 31.8419 0.950577 20.5704C0.950577 9.15808 10.082 0 21.4612 0ZM14.8585 16.0619C15.2799 19.5842 18.2301 21.8385 21.7422 21.8385C23.8495 21.9794 25.3948 23.9519 25.2543 26.0653C25.1138 28.1787 23.2875 29.8694 21.0398 29.7285C18.9325 29.5876 17.3872 27.6151 17.5277 25.5017C17.6682 23.6701 14.8585 23.3883 14.718 25.3608C14.5775 28.7423 16.8253 31.4192 20.0564 32.2646V34.6598C20.0564 36.3505 22.7256 36.3505 22.7256 34.6598V32.2646C26.0972 31.4192 28.3449 28.6014 28.064 25.2199C27.783 21.9794 25.1138 19.4433 21.8827 19.1615C19.4945 19.3024 17.5277 17.7526 17.5277 15.2165C17.5277 13.1031 19.2135 11.2715 21.3207 11.2715C23.5685 11.2715 25.2543 13.1031 25.2543 15.2165C25.2543 17.0481 28.064 17.0481 28.064 15.2165C28.064 11.9759 25.8162 9.58076 22.7256 8.7354V6.34021C22.7256 4.64948 20.0564 4.64948 20.0564 6.34021V8.7354C16.6848 9.58076 14.2965 12.5395 14.8585 16.0619Z" fill="#58A919"/>
</svg>
